<?xml version="1.0" encoding="UTF-8"?>
<svg version="1.1" xmlns="http://www.w3.org/2000/svg" width="375" height="375">
<path d="M0 0 C4.1554238 2.46801277 7.5402821 5.28816679 10.95329285 8.69259644 C11.41366056 9.1491386 11.87402828 9.60568077 12.34834653 10.07605755 C13.87525176 11.59272143 15.39499718 13.11635333 16.91479492 14.64013672 C18.01384187 15.73483238 19.11330468 16.82911065 20.21315002 17.92300415 C23.18875519 20.88525549 26.15796107 23.85384232 29.12562728 26.8240447 C31.60652096 29.30601017 34.09038942 31.78498806 36.57421094 34.26402295 C42.43390692 40.11263705 48.28827473 45.96654725 54.1394043 51.82373047 C60.17124707 57.86161781 66.21221948 63.89025908 72.25771636 69.91447246 C77.45391972 75.09305535 82.64429248 80.27743179 87.83006555 85.46645939 C90.92478757 88.5629931 94.02168587 91.65726738 97.12425804 94.74593735 C100.04072052 97.64981831 102.94982619 100.56087447 105.85347557 103.47756577 C106.91872701 104.5451815 107.98653095 105.61025753 109.05708694 106.67255402 C110.52100794 108.12599399 111.97532183 109.58843307 113.42765808 111.05343628 C114.2430263 111.86863676 115.05839453 112.68383724 115.89847088 113.52374077 C121.25440639 119.83470959 122.37334351 126.11044724 122.27734375 134.12109375 C121.56382798 141.52758847 117.55341637 148.12969179 112 153 C106.84837589 156.2160993 101.99431444 158.12831553 95.88598633 158.11352539 C94.84513382 158.11344986 93.80428131 158.11337433 92.73188782 158.11329651 C91.60993515 158.10813522 90.48798248 158.10297394 89.33203125 158.09765625 C88.18208176 158.0962413 87.03213226 158.09482635 85.84733582 158.09336853 C82.16903092 158.08776429 78.49078655 158.07521104 74.8125 158.0625 C72.32096442 158.05748555 69.82942789 158.05292255 67.33789062 158.04882812 C61.22523971 158.03779347 55.11262418 158.02105118 49 158 C49.00368717 158.8256867 49.00737434 159.65137341 49.01117325 160.50208092 C49.09961276 180.61748381 49.16575264 200.73285308 49.20724869 220.84840965 C49.22785062 230.57625701 49.25592585 240.30397437 49.30175781 250.03173828 C49.3416982 258.5130852 49.36745003 266.99433795 49.37635398 275.47577631 C49.38155655 279.96428949 49.39373486 284.45253331 49.42292023 288.94095993 C49.45020329 293.1713694 49.45841914 297.40140024 49.45243073 301.63188934 C49.45352523 303.17899004 49.46140217 304.72610427 49.4768219 306.27312851 C49.57036193 316.14760642 49.19494605 324.89803858 42.6875 332.8125 C35.82098562 338.40152333 31.75834262 341.10608152 22.69018555 341.16113281 C21.41173264 341.17074036 20.13327972 341.1803479 18.81608582 341.19024658 C17.42296528 341.19509516 16.02984267 341.19937384 14.63671875 341.203125 C13.20188903 341.20888169 11.76705932 341.21463936 10.33222961 341.22039795 C7.32540531 341.23089125 4.31860761 341.23674472 1.31176758 341.24023438 C-2.52813932 341.24571329 -6.3676906 341.26973513 -10.20748615 341.29820633 C-13.17159531 341.31689433 -16.13561987 341.32204159 -19.09978294 341.32357025 C-20.51468028 341.32658382 -21.92957658 341.33456829 -23.34441566 341.34775543 C-36.93136096 341.46534754 -36.93136096 341.46534754 -43 338 C-44.010625 337.46375 -45.02125 336.9275 -46.0625 336.375 C-50.72215817 332.6076168 -54.10154826 327.69535522 -56 322 C-56.09212844 319.80595493 -56.12193212 317.60914006 -56.12025452 315.41316223 C-56.12110894 314.74089637 -56.12196337 314.06863051 -56.12284368 313.37599295 C-56.12449341 311.11888047 -56.11898541 308.86184198 -56.11352539 306.60473633 C-56.11324338 304.98855084 -56.11340152 303.37236522 -56.1139679 301.75617981 C-56.11425534 297.36392438 -56.1083671 292.97169613 -56.10139394 288.57944703 C-56.09515166 283.99101031 -56.09455591 279.402573 -56.09336853 274.81413269 C-56.0902578 266.1231482 -56.08204788 257.43217625 -56.07201904 248.74119729 C-56.0608499 238.84772637 -56.05534543 228.95425486 -56.05032361 219.06077921 C-56.03986507 198.70717913 -56.0222706 178.35359036 -56 158 C-56.9505426 158.00999275 -56.9505426 158.00999275 -57.92028809 158.02018738 C-64.53925483 158.08676085 -71.15812582 158.13189186 -77.77734375 158.16479492 C-80.24483099 158.17984452 -82.71229165 158.2002889 -85.1796875 158.22631836 C-88.73444191 158.26286926 -92.28884139 158.27976518 -95.84375 158.29296875 C-97.48796936 158.31619453 -97.48796936 158.31619453 -99.16540527 158.33988953 C-109.08966609 158.34205082 -115.71350545 156.1679335 -123.01171875 149.22265625 C-128.66393794 142.90416368 -129.65225207 136.50089494 -129.3984375 128.1640625 C-128.65951633 122.29615911 -126.23608611 117.85412916 -123 113 C-122.34 113 -121.68 113 -121 113 C-120.79375 112.443125 -120.5875 111.88625 -120.375 111.3125 C-118.8570529 108.75958897 -117.03966431 107.31993959 -114.72265625 105.50390625 C-112.00768025 103.13368911 -109.79764537 100.35478861 -107.515625 97.57421875 C-107.01546875 97.05472656 -106.5153125 96.53523438 -106 96 C-105.34 96 -104.68 96 -104 96 C-103.7525 95.4225 -103.505 94.845 -103.25 94.25 C-101.81700012 91.67060021 -100.21575324 89.93878408 -98 88 C-97.34 88 -96.68 88 -96 88 C-95.773125 87.443125 -95.54625 86.88625 -95.3125 86.3125 C-93.62449964 83.33840412 -91.53323483 81.27991135 -89 79 C-88.34 79 -87.68 79 -87 79 C-86.7525 78.4225 -86.505 77.845 -86.25 77.25 C-84.81700012 74.67060021 -83.21575324 72.93878408 -81 71 C-80.34 71 -79.68 71 -79 71 C-78.5968457 70.11006348 -78.5968457 70.11006348 -78.18554688 69.20214844 C-76.99709268 66.99459967 -75.79257611 65.53457118 -74.03125 63.765625 C-73.46019531 63.19199219 -72.88914063 62.61835937 -72.30078125 62.02734375 C-71.70652344 61.44082031 -71.11226562 60.85429688 -70.5 60.25 C-69.90574219 59.64800781 -69.31148437 59.04601562 -68.69921875 58.42578125 C-68.12816406 57.85730469 -67.55710938 57.28882813 -66.96875 56.703125 C-66.44732422 56.18395508 -65.92589844 55.66478516 -65.38867188 55.12988281 C-64 54 -64 54 -62 54 C-61.76392532 53.43959015 -61.52785065 52.8791803 -61.28462219 52.30178833 C-59.69440337 49.45243142 -57.74831159 47.48638447 -55.44604492 45.17138672 C-54.98561295 44.70584381 -54.52518097 44.2403009 -54.05079651 43.76065063 C-52.53247875 42.22847172 -51.00688419 40.70379641 -49.48046875 39.1796875 C-48.41891321 38.11424329 -47.35758123 37.04857629 -46.29646301 35.98269653 C-44.07302754 33.75180645 -41.84576524 31.52482247 -39.6159668 29.30029297 C-36.76272671 26.45284822 -33.92101527 23.59419965 -31.08230114 20.73228264 C-28.89389944 18.52913127 -26.69859077 16.3329649 -24.5012455 14.13873672 C-23.45075602 13.08773472 -22.40262052 12.03437429 -21.35692406 10.97860336 C-19.89240913 9.50171684 -18.41862185 8.03473283 -16.94213867 6.56982422 C-16.1065593 5.73361542 -15.27097992 4.89740662 -14.41007996 4.03585815 C-9.90762565 0.23251615 -5.83328393 -0.61402989 0 0 Z " fill="#060403" transform="translate(186,17)"/>
<path d="M0 0 C5.71761352 4.75522963 10.98967625 9.84755529 16.23999023 15.1105957 C17.13834091 16.00719406 18.03669159 16.90379242 18.96226501 17.82756042 C21.40625088 20.26702062 23.84710341 22.70959283 26.28723407 25.15290856 C28.84550918 27.7137279 31.40623726 30.27209253 33.96656799 32.83085632 C38.25774954 37.12022416 42.5468302 41.41168423 46.8347168 45.7043457 C51.79704443 50.67213527 56.76299235 55.63628408 61.73079532 60.59859782 C66.0002556 64.86352899 70.26777533 69.13039453 74.53366047 73.39890164 C77.08004931 75.9468517 79.62711437 78.49411588 82.17593193 81.03963661 C85.00873954 83.8690348 87.83746609 86.7024783 90.66577148 89.53637695 C91.51504211 90.38362335 92.36431274 91.23086975 93.23931885 92.10379028 C94.0033049 92.87059616 94.76729095 93.63740204 95.5544281 94.42744446 C96.22377601 95.09716939 96.89312391 95.76689432 97.58275509 96.45691395 C99 98 99 98 99 99 C98.23658295 99.00586624 97.47316589 99.01173248 96.68661499 99.01777649 C89.47735517 99.0757811 82.26843791 99.14790171 75.05948448 99.23571491 C71.35364347 99.28036274 67.64791097 99.31963077 63.94189453 99.34643555 C60.36255267 99.37252489 56.78362964 99.41296603 53.20454788 99.46318626 C51.84192761 99.47981715 50.47923495 99.49135493 49.11652756 99.49761391 C47.20175349 99.50729531 45.28711355 99.53708538 43.37255859 99.56762695 C41.74040909 99.58428154 41.74040909 99.58428154 40.07528687 99.60127258 C36.35659282 100.08342119 34.12413862 100.90701602 31 103 C27.61235268 107.98672803 26.49896177 111.23033587 26.48101807 117.37156677 C26.47351681 118.07991875 26.46601556 118.78827073 26.458287 119.51808792 C26.43811003 121.87360941 26.44609221 124.22815908 26.45410156 126.58374023 C26.44536106 128.2793421 26.43487361 129.97493573 26.42277527 131.67051697 C26.39495298 136.26093099 26.39150975 140.85107537 26.39249516 145.44156146 C26.38936282 150.24357795 26.3637379 155.04547358 26.34051514 159.84742737 C26.29997623 168.93492987 26.27961937 178.02236065 26.26654124 187.10993963 C26.25066407 197.45821605 26.21224539 207.80637054 26.17194796 218.15457618 C26.08957778 239.43636735 26.03844313 260.71808102 26 282 C8.84 282 -8.32 282 -26 282 C-26.02187378 274.13281128 -26.02187378 274.13281128 -26.04418945 266.10668945 C-26.09446103 248.80397051 -26.1608917 231.50134173 -26.23571491 214.19871235 C-26.28069653 203.70515763 -26.32010574 193.21163704 -26.34643555 182.71801758 C-26.36939646 173.57267288 -26.40277312 164.42743594 -26.44870156 155.28217667 C-26.4726595 150.43901508 -26.49137143 145.59596038 -26.49761391 140.75274086 C-26.50365313 136.19483217 -26.52361082 131.63719707 -26.55427551 127.07938957 C-26.56307441 125.40606204 -26.56677449 123.73269879 -26.56500816 122.05934906 C-26.56335805 119.77491075 -26.58003128 117.49130908 -26.60127258 115.20698547 C-26.60588155 113.9284586 -26.61049051 112.64993174 -26.61523914 111.33266163 C-27.03123834 107.72942461 -27.8124897 105.86346264 -30 103 C-36.45799452 98.9091328 -43.59088314 99.52488536 -51.02734375 99.48828125 C-52.38499047 99.47141401 -53.74262177 99.45326104 -55.10023499 99.43388367 C-58.65275247 99.38659877 -62.20520741 99.35665118 -65.75793457 99.33044434 C-69.39148303 99.30052938 -73.02481641 99.25403698 -76.65820312 99.20898438 C-83.77201188 99.12319671 -90.88588717 99.05574311 -98 99 C-93.24294527 93.27785704 -88.144737 88.00861532 -82.87353516 82.76000977 C-81.97533051 81.86165909 -81.07712585 80.96330841 -80.15170288 80.03773499 C-77.70808822 77.59383539 -75.26141992 75.15301438 -72.81415987 72.71276593 C-70.24990276 70.15479327 -67.68850909 67.59395649 -65.12680054 65.03343201 C-60.28410235 60.1938322 -55.4388625 55.35678547 -50.59268701 50.52066797 C-45.07192327 45.01111191 -39.55402528 39.49868953 -34.03635716 33.98603356 C-22.69407344 22.65418039 -11.34822555 11.32590282 0 0 Z " fill="#FD904C" transform="translate(182,49)"/>
<path d="M0 0 C-1.68287359 3.75410262 -1.68287359 3.75410262 -3.54929829 5.20131397 C-5.796037 7.98698487 -5.38601365 10.43459241 -5.39872742 13.96647644 C-5.40537424 14.67957783 -5.41202107 15.39267921 -5.41886932 16.12738973 C-5.43755888 18.52281468 -5.43489012 20.91774276 -5.43237305 23.31323242 C-5.4413866 25.02794606 -5.45171281 26.74265322 -5.46325684 28.45735168 C-5.49090085 33.11819929 -5.50012137 37.7789249 -5.50611091 42.43984389 C-5.51547536 47.30860363 -5.54167713 52.17727153 -5.56611633 57.04597473 C-5.60983822 66.26817456 -5.63835021 75.49035662 -5.66143972 84.71262866 C-5.68846094 95.21073738 -5.7323743 105.70875397 -5.77772844 116.206797 C-5.87065618 137.80448183 -5.94229965 159.40219423 -6 181 C-6.33 181 -6.66 181 -7 181 C-7.1167881 158.28652097 -7.20496609 135.57309143 -7.25906086 112.85937309 C-7.28484534 102.31304769 -7.32000063 91.76690881 -7.37719727 81.22070312 C-7.42702463 72.0289002 -7.45928924 62.83723235 -7.47044247 53.64529812 C-7.47696234 48.7779176 -7.49229103 43.91092353 -7.52865028 39.04366684 C-7.56259918 34.46193357 -7.5730552 29.8807458 -7.56553841 25.2988987 C-7.56691345 23.61787895 -7.57685276 21.93684089 -7.59602737 20.25592995 C-7.62094989 17.9583533 -7.61491033 15.66282915 -7.60127258 13.36520386 C-7.60588155 12.08022444 -7.61049051 10.79524502 -7.61523914 9.47132683 C-6.90816377 5.48183794 -4.79635359 0 0 0 Z " fill="#0D0000" transform="translate(216,150)"/>
<path d="M0 0 C0.495 1.98 0.495 1.98 1 4 C0.32904297 4.56267578 0.32904297 4.56267578 -0.35546875 5.13671875 C-1.26232422 5.90435547 -1.26232422 5.90435547 -2.1875 6.6875 C-2.77917969 7.18636719 -3.37085938 7.68523437 -3.98046875 8.19921875 C-6.41765897 10.37241931 -8.69762529 12.68645872 -11 15 C-12.35166767 16.35227107 -13.70366908 17.70420858 -15.0559082 19.0559082 C-15.81631912 19.81631912 -16.57673004 20.57673004 -17.36018372 21.36018372 C-27.90678914 31.90678914 -38.45339457 42.45339457 -49 53 C-49 50 -49 50 -47 47 C-46.34 47 -45.68 47 -45 47 C-44.79375 46.443125 -44.5875 45.88625 -44.375 45.3125 C-42.8570529 42.75958897 -41.03966431 41.31993959 -38.72265625 39.50390625 C-36.00768025 37.13368911 -33.79764537 34.35478861 -31.515625 31.57421875 C-31.01546875 31.05472656 -30.5153125 30.53523438 -30 30 C-29.34 30 -28.68 30 -28 30 C-27.7525 29.4225 -27.505 28.845 -27.25 28.25 C-25.81700012 25.67060021 -24.21575324 23.93878408 -22 22 C-21.34 22 -20.68 22 -20 22 C-19.773125 21.443125 -19.54625 20.88625 -19.3125 20.3125 C-17.62449964 17.33840412 -15.53323483 15.27991135 -13 13 C-12.34 13 -11.68 13 -11 13 C-10.7525 12.4225 -10.505 11.845 -10.25 11.25 C-8.81700012 8.67060021 -7.21575324 6.93878408 -5 5 C-4.34 5 -3.68 5 -3 5 C-2.690625 4.360625 -2.38125 3.72125 -2.0625 3.0625 C-1 1 -1 1 0 0 Z " fill="#474747" transform="translate(110,83)"/>
<path d="M0 0 C0 0.99 0 1.98 0 3 C-0.66 3.66 -1.32 4.32 -2 5 C-2 7.31 -2 9.62 -2 12 C15.16 12.33 32.32 12.66 50 13 C50 13.33 50 13.66 50 14 C29.21 14 8.42 14 -13 14 C-6.25 6.125 -6.25 6.125 -3.125 3.0625 C-2.23167969 2.18271484 -2.23167969 2.18271484 -1.3203125 1.28515625 C-0.66675781 0.64900391 -0.66675781 0.64900391 0 0 Z " fill="#EE9360" transform="translate(97,134)"/>
<path d="M0 0 C1.16959987 0.97566112 2.33561177 1.955625 3.5 2.9375 C4.47453125 3.75541016 4.47453125 3.75541016 5.46875 4.58984375 C6.22671875 5.28787109 6.22671875 5.28787109 7 6 C7 6.33 7 6.66 7 7 C5.85487442 7.00879936 5.85487442 7.00879936 4.68661499 7.01777649 C-2.52264483 7.0757811 -9.73156209 7.14790171 -16.94051552 7.23571491 C-20.64635653 7.28036274 -24.35208903 7.31963077 -28.05810547 7.34643555 C-31.63744733 7.37252489 -35.21637036 7.41296603 -38.79545212 7.46318626 C-40.15807239 7.47981715 -41.52076505 7.49135493 -42.88347244 7.49761391 C-44.79824651 7.50729531 -46.71288645 7.53708538 -48.62744141 7.56762695 C-50.25959091 7.58428154 -50.25959091 7.58428154 -51.92471313 7.60127258 C-56.83162752 8.23748032 -60.76974869 10.23137347 -64 14 C-63.8125 11.125 -63.8125 11.125 -63 8 C-59.31439382 6.00466504 -56.06678844 5.73347522 -51.92456055 5.68115234 C-50.12325935 5.65134781 -50.12325935 5.65134781 -48.28556824 5.62094116 C-46.99894791 5.60938995 -45.71232758 5.59783875 -44.38671875 5.5859375 C-43.04863811 5.56721402 -41.71056913 5.54763973 -40.37251282 5.5272522 C-36.86273084 5.4760493 -33.35291062 5.43636064 -29.84295654 5.39910889 C-26.25653722 5.35899461 -22.6702753 5.30793626 -19.08398438 5.2578125 C-12.05610501 5.16119373 -5.02812678 5.07674433 2 5 C1.01 2.525 1.01 2.525 0 0 Z " fill="#EF925F" transform="translate(274,141)"/>
<path d="M0 0 C0 3 0 3 -1.14575195 4.47045898 C-1.67128662 4.97391846 -2.19682129 5.47737793 -2.73828125 5.99609375 C-3.31126953 6.55490234 -3.88425781 7.11371094 -4.47460938 7.68945312 C-5.08111328 8.26630859 -5.68761719 8.84316406 -6.3125 9.4375 C-7.49836291 10.57967998 -8.68202341 11.72415178 -9.86328125 12.87109375 C-10.41709473 13.40847168 -10.9709082 13.94584961 -11.54150391 14.49951172 C-13.14079447 16.07918627 -13.14079447 16.07918627 -14.79296875 18.41015625 C-15.19128906 18.93480469 -15.58960937 19.45945313 -16 20 C-16.66 20 -17.32 20 -18 20 C-18.33 20.99 -18.66 21.98 -19 23 C-19.99 22.67 -20.98 22.34 -22 22 C-14.74 14.74 -7.48 7.48 0 0 Z " fill="#DE8B59" transform="translate(120,111)"/>
<path d="M0 0 C0.33 1.32 0.66 2.64 1 4 C-1.31 5.65 -3.62 7.3 -6 9 C-5.67 10.65 -5.34 12.3 -5 14 C-9.455 14.495 -9.455 14.495 -14 15 C-9.59156563 9.70987876 -4.92440206 4.81191572 0 0 Z " fill="#EA9058" transform="translate(145,86)"/>
<path d="M0 0 C0 0.99 0 1.98 0 3 C-0.66 3.66 -1.32 4.32 -2 5 C-2.16677282 8.58343976 -2.16677282 8.58343976 -2 12 C-4.64 12.33 -7.28 12.66 -10 13 C-7.10917547 8.04254346 -4.24404412 3.88026891 0 0 Z " fill="#FC9052" transform="translate(97,134)"/>
<path d="M0 0 C0.33 1.32 0.66 2.64 1 4 C0.27683594 4.61488281 0.27683594 4.61488281 -0.4609375 5.2421875 C-1.09257813 5.78101562 -1.72421875 6.31984375 -2.375 6.875 C-3.00148438 7.40867187 -3.62796875 7.94234375 -4.2734375 8.4921875 C-5.55836651 9.61432007 -6.79371975 10.79371975 -8 12 C-8.66 11.34 -9.32 10.68 -10 10 C-8.37660195 8.29115995 -6.70680947 6.62553283 -5 5 C-4.34 5 -3.68 5 -3 5 C-2.690625 4.360625 -2.38125 3.72125 -2.0625 3.0625 C-1 1 -1 1 0 0 Z " fill="#505050" transform="translate(110,83)"/>
<path d="M0 0 C0.66 0.66 1.32 1.32 2 2 C1.278125 2.556875 0.55625 3.11375 -0.1875 3.6875 C-3.04834845 5.95405207 -3.04834845 5.95405207 -5.5625 8.625 C-7.74551645 10.75204167 -9.29604281 11.75377872 -12 13 C-8.19524578 8.43969176 -4.25030379 4.14910608 0 0 Z " fill="#E0905E" transform="translate(182,49)"/>
<path d="M0 0 C1.16959987 0.97566112 2.33561177 1.955625 3.5 2.9375 C4.1496875 3.48277344 4.799375 4.02804688 5.46875 4.58984375 C6.22671875 5.28787109 6.22671875 5.28787109 7 6 C7 6.33 7 6.66 7 7 C3.7 7 0.4 7 -3 7 C-3 6.67 -3 6.34 -3 6 C-1.35 5.67 0.3 5.34 2 5 C1.34 3.35 0.68 1.7 0 0 Z " fill="#D68856" transform="translate(274,141)"/>
<path d="M0 0 C0.33 0.66 0.66 1.32 1 2 C-1.66666667 4.66666667 -4.33333333 7.33333333 -7 10 C-7.66 9.67 -8.32 9.34 -9 9 C-6.03 6.03 -3.06 3.06 0 0 Z " fill="#E18D58" transform="translate(130,101)"/>
<path d="M0 0 C1.98 1.65 3.96 3.3 6 5 C5.01 5.495 5.01 5.495 4 6 C3.67 6.66 3.34 7.32 3 8 C2.34 7.67 1.68 7.34 1 7 C0.59270772 4.67843403 0.25561323 2.3431213 0 0 Z " fill="#E58951" transform="translate(208,75)"/>
<path d="M0 0 C-0.97608217 2.92824652 -2.10786631 4.61426621 -4 7 C-4.66 5.68 -5.32 4.36 -6 3 C-3.375 0 -3.375 0 0 0 Z " fill="#F89258" transform="translate(157,146)"/>
<path d="M0 0 C3.16115776 1.36983503 3.9927092 1.9890638 6 5 C4.02 5 2.04 5 0 5 C0 3.33333333 0 1.66666667 0 0 Z " fill="#E08A52" transform="translate(260,128)"/>
<path d="M0 0 C0.66 0.66 1.32 1.32 2 2 C0.68 3.32 -0.64 4.64 -2 6 C-4.475 5.01 -4.475 5.01 -7 4 C-6.34 3.34 -5.68 2.68 -5 2 C-3.68 2 -2.36 2 -1 2 C-0.67 1.34 -0.34 0.68 0 0 Z " fill="#E48A4F" transform="translate(152,145)"/>
<path d="M0 0 C0 0.99 0 1.98 0 3 C-0.66 3.66 -1.32 4.32 -2 5 C-2.69748583 6.31747324 -3.36959957 7.64914193 -4 9 C-4.99 8.34 -5.98 7.68 -7 7 C-4.69 4.69 -2.38 2.38 0 0 Z " fill="#E08B58" transform="translate(97,134)"/>
<path d="M0 0 C0.66 0 1.32 0 2 0 C0.70700306 2.88437779 -0.65941363 4.87219421 -3 7 C-3.66 6.67 -4.32 6.34 -5 6 C-3.38405168 3.95880212 -1.7143618 1.95927063 0 0 Z " fill="#260D03" transform="translate(214,150)"/>
<path d="M0 0 C1.98 1.65 3.96 3.3 6 5 C5.01 5.33 4.02 5.66 3 6 C2.01 5.34 1.02 4.68 0 4 C0 2.68 0 1.36 0 0 Z " fill="#DE8758" transform="translate(197,64)"/>
</svg>
