<?xml version="1.0" encoding="UTF-8"?>
<svg version="1.1" xmlns="http://www.w3.org/2000/svg" width="375" height="375">
<path d="M0 0 C2.97649068 1.68935957 4.98877512 3.81002705 7.3125 6.3125 C8.075625 7.034375 8.83875 7.75625 9.625 8.5 C11.3125 10.3125 11.3125 10.3125 11.3125 12.3125 C11.869375 12.51875 12.42625 12.725 13 12.9375 C15.57841333 14.47061063 17.05009879 16.33547109 18.89453125 18.66796875 C20.91602904 21.01246068 23.24409476 22.90132896 25.6171875 24.87890625 C28.98917476 27.73033327 31.91378307 30.81935011 34.6875 34.25 C37.05866244 37.15802941 39.74090681 39.48200567 42.6171875 41.87890625 C45.98917476 44.73033327 48.91378307 47.81935011 51.6875 51.25 C54.05866244 54.15802941 56.74090681 56.48200567 59.6171875 58.87890625 C63.01201619 61.74964848 65.94930944 64.86549623 68.75 68.3125 C71.38001232 71.39153881 74.1750034 73.76328401 77.3125 76.3125 C80.15256231 79.01055919 82.74591151 81.80759382 85.25 84.8125 C88.01308057 88.08568775 90.98393912 90.62132312 94.3125 93.3125 C97.15256231 96.01055919 99.74591151 98.80759382 102.25 101.8125 C104.19218109 104.122255 105.9361183 105.81918987 108.3125 107.75 C114.42923168 112.97470831 118.80346312 118.8403535 119.5625 127 C119.94798738 136.44444085 118.06912981 143.68846853 111.625 150.75 C106.49624754 156.01054053 99.65602345 157.46388642 92.51733398 157.65307617 C90.36436214 157.65260727 88.21134884 157.63602183 86.05859375 157.60546875 C84.91713394 157.60122391 83.77567413 157.59697906 82.59962463 157.59260559 C78.9828349 157.57592151 75.36661902 157.53828766 71.75 157.5 C69.28581538 157.48493992 66.82162197 157.47125384 64.35742188 157.45898438 C58.3422548 157.42605166 52.32741842 157.37595529 46.3125 157.3125 C46.31526538 158.1391085 46.31803076 158.96571699 46.32087994 159.81737423 C46.38719062 179.94913429 46.43680534 200.08087547 46.46793652 220.21272182 C46.48339224 229.94841374 46.50445701 239.68403267 46.53881836 249.41967773 C46.56876035 257.9072406 46.58808441 266.39475059 46.59476548 274.88236481 C46.59866961 279.37470647 46.60781785 283.86689689 46.62969017 288.35918999 C46.6501312 292.59201504 46.65631847 296.82462729 46.65182304 301.05749702 C46.65264485 302.60662113 46.65856503 304.15575273 46.67011642 305.70483398 C46.73769034 315.2385395 46.58325115 323.45309829 41.125 331.5625 C34.67121028 337.87287217 29.00087537 340.41895599 20.01855469 340.47363281 C18.74332947 340.48324036 17.46810425 340.4928479 16.15423584 340.50274658 C14.76428406 340.50759569 13.37433018 340.51187424 11.984375 340.515625 C10.55194092 340.52138228 9.11950683 340.52713993 7.68707275 340.53289795 C4.68444461 340.54339234 1.68184311 340.54924485 -1.32080078 340.55273438 C-5.15164181 340.55820831 -8.9821255 340.582219 -12.81285477 340.61070633 C-15.77271523 340.62941507 -18.73249113 340.63454272 -21.6924057 340.63607025 C-23.10368549 340.63908002 -24.51496438 340.64705139 -25.92618561 340.66025543 C-35.36088723 340.74221254 -43.52433492 340.68160188 -50.9375 334.125 C-51.56140625 333.59519531 -52.1853125 333.06539063 -52.828125 332.51953125 C-59.63048814 324.44529769 -59.23921166 316.28547223 -59.14160156 306.2578125 C-59.14047205 304.63103768 -59.14110897 303.00426082 -59.14337158 301.37748718 C-59.14451561 296.97916042 -59.12105703 292.58127319 -59.09307575 288.18304825 C-59.06800997 283.57998148 -59.06571602 278.97690378 -59.06097412 274.3737793 C-59.04855953 265.66516256 -59.0157585 256.95674754 -58.97557616 248.24821949 C-58.93081119 238.3304761 -58.90885954 228.41272289 -58.88879442 218.49490356 C-58.84702449 198.10065662 -58.77670199 177.70659103 -58.6875 157.3125 C-59.33150253 157.32138245 -59.97550507 157.33026489 -60.63902283 157.3394165 C-67.37164389 157.428249 -74.1040971 157.48838297 -80.8371582 157.53222656 C-83.34634164 157.55228062 -85.85547869 157.57953085 -88.36450195 157.61425781 C-91.98139933 157.66304754 -95.5976761 157.68553182 -99.21484375 157.703125 C-100.88413185 157.73409271 -100.88413185 157.73409271 -102.58714294 157.76568604 C-110.90876384 157.76805695 -117.26921345 156.02766264 -124 151.0625 C-129.59556326 145.33680736 -131.83641813 138.67156084 -132.0625 130.75 C-132.13597656 129.01556641 -132.13597656 129.01556641 -132.2109375 127.24609375 C-130.76294128 116.36451023 -123.3902131 109.30390008 -115.90209961 101.92773438 C-114.80335893 100.82712634 -113.70570691 99.72543059 -112.60905457 98.6227417 C-109.64938056 95.65315363 -106.67448846 92.69926722 -103.69619823 89.7483654 C-100.57465828 86.65076907 -97.46662286 83.53967592 -94.35682678 80.43029785 C-89.13910201 75.21718946 -83.91199166 70.01365016 -78.6784668 64.81640625 C-72.6291462 58.80891087 -66.59207258 52.78933326 -60.56198114 46.76254034 C-54.13255688 40.33671455 -47.69553041 33.91855007 -41.25558782 27.50326729 C-39.40263029 25.65653558 -37.55096898 23.80851215 -35.69953728 21.96025085 C-32.79295657 19.0595695 -29.88122944 16.16415218 -26.96542549 13.27274323 C-25.89625743 12.21101474 -24.8287656 11.14759524 -23.76307678 10.08237457 C-22.30889469 8.62945044 -20.84872303 7.18282583 -19.38682556 5.7376709 C-18.57108031 4.92657616 -17.75533506 4.11548141 -16.91487026 3.27980804 C-11.78637681 -1.24989526 -6.5067268 -1.66451151 0 0 Z M-10.49024963 35.98826599 C-11.30779724 36.80299377 -12.12534485 37.61772156 -12.96766663 38.45713806 C-14.32280617 39.81531395 -14.32280617 39.81531395 -15.70532227 41.20092773 C-16.66091475 42.15516632 -17.61672009 43.10919179 -18.57272339 44.0630188 C-21.17617515 46.66189487 -23.77643346 49.26394465 -26.3760159 51.8666904 C-29.09048858 54.58368598 -31.80739015 57.29825091 -34.52391052 60.01319885 C-39.08634646 64.57381289 -43.64666388 69.13653736 -48.20581055 73.70043945 C-53.4849872 78.98505876 -58.76775685 84.26606577 -64.0524078 89.5452103 C-68.58076899 94.06904094 -73.1071877 98.59480824 -77.63197368 103.12221485 C-80.33830002 105.83010428 -83.04530708 108.5373039 -85.75406075 111.24276543 C-88.29991755 113.78574436 -90.84333627 116.33113637 -93.38485336 118.8784523 C-94.76918606 120.26474913 -96.15599745 121.64856937 -97.54286194 123.03233337 C-98.76495361 124.25865479 -98.76495361 124.25865479 -100.01173401 125.50975037 C-101.08275281 126.58133471 -101.08275281 126.58133471 -102.17540836 127.67456722 C-103.80055289 129.06343146 -103.80055289 129.06343146 -103.6875 130.3125 C-102.92408295 130.31836624 -102.16066589 130.32423248 -101.37411499 130.33027649 C-94.16485517 130.3882811 -86.95593791 130.46040171 -79.74698448 130.54821491 C-76.04114347 130.59286274 -72.33541097 130.63213077 -68.62939453 130.65893555 C-65.05005267 130.68502489 -61.47112964 130.72546603 -57.89204788 130.77568626 C-56.52942761 130.79231715 -55.16673495 130.80385493 -53.80402756 130.81011391 C-51.88925349 130.81979531 -49.97461355 130.84958538 -48.06005859 130.88012695 C-46.97195892 130.89123001 -45.88385925 130.90233307 -44.76278687 130.91377258 C-41.00378653 131.40114711 -38.79753352 132.11258947 -35.6875 134.3125 C-31.31459535 141.76559999 -32.24605283 150.53047615 -32.25512695 158.91796875 C-32.24610179 160.60386368 -32.23577272 162.28975205 -32.22424316 163.97563171 C-32.19673565 168.53494742 -32.18739715 173.09413839 -32.18138909 177.65352631 C-32.17198914 182.42482924 -32.14578444 187.19603961 -32.12138367 191.96728516 C-32.07775957 200.99453039 -32.04918748 210.02175761 -32.02606028 219.04907608 C-31.99898669 229.32965144 -31.9550765 239.6101335 -31.90977156 249.89064217 C-31.8169838 271.03122437 -31.74749854 292.17179756 -31.6875 313.3125 C-14.8575 313.3125 1.9725 313.3125 19.3125 313.3125 C19.3218457 308.07294434 19.33119141 302.83338867 19.34082031 297.43505859 C19.37455254 280.14430864 19.42987881 262.85367795 19.49640274 245.56302452 C19.53621595 235.07733274 19.56859686 224.59171625 19.58349609 214.10595703 C19.59650076 204.96680683 19.62343515 195.82782215 19.66711307 186.68876517 C19.68975451 181.84945152 19.70540907 177.01034223 19.70438385 172.17097092 C19.70363882 167.61545663 19.72152621 163.06039455 19.75366783 158.50499725 C19.76218249 156.83370399 19.76390614 155.1623601 19.75830269 153.49105453 C19.75166452 151.20675485 19.76957666 148.92389474 19.79351807 146.63973999 C19.79904882 144.72333238 19.79904882 144.72333238 19.80469131 142.76820946 C20.40534881 138.68065078 21.73937522 136.50822708 24.3125 133.3125 C28.01539729 131.18528686 31.35082268 131.04522925 35.5715332 130.99365234 C36.81244217 130.97378265 38.05335114 130.95391296 39.3318634 130.93344116 C40.67566754 130.92156671 42.01947357 130.90990374 43.36328125 130.8984375 C44.74620201 130.87971502 46.12911147 130.8601408 47.51200867 130.8397522 C51.14016038 130.78853882 54.76834909 130.74885569 58.39666748 130.71160889 C62.10372996 130.67150125 65.81063999 130.62043985 69.51757812 130.5703125 C76.78244729 130.47368118 84.04739055 130.38923587 91.3125 130.3125 C86.58378514 124.6290211 81.52626656 119.38407637 76.29370117 114.16430664 C75.40685638 113.27570953 74.5200116 112.38711243 73.60629272 111.47158813 C71.19323763 109.05490621 68.77798047 106.64046962 66.36152053 104.22719502 C63.82872828 101.69694726 61.29839103 99.16424623 58.76765442 96.63194275 C54.52536497 92.38783968 50.28098354 88.14583733 46.03540039 83.9050293 C41.12214226 78.9972333 36.2125253 74.08581683 31.30474299 69.17254549 C27.08652056 64.94979395 22.86636379 60.72898298 18.6445654 56.50980657 C16.12456102 53.99136338 13.60524249 51.47224408 11.08766747 48.95137215 C8.2894044 46.14969965 5.48708989 43.35210211 2.68432617 40.55493164 C1.84643051 39.71501175 1.00853485 38.87509186 0.14524841 38.00971985 C-0.99233917 36.876362 -0.99233917 36.876362 -2.15290833 35.72010803 C-2.81525891 35.05813447 -3.4776095 34.39616091 -4.16003132 33.71412754 C-7.09477794 31.02116123 -8.02716983 33.5264861 -10.49024963 35.98826599 Z " fill="#090909" transform="translate(188.6875,17.6875)"/>
<path d="M0 0 C0.495 1.98 0.495 1.98 1 4 C0.32904297 4.56267578 0.32904297 4.56267578 -0.35546875 5.13671875 C-1.26232422 5.90435547 -1.26232422 5.90435547 -2.1875 6.6875 C-2.77917969 7.18636719 -3.37085938 7.68523437 -3.98046875 8.19921875 C-6.41765897 10.37241931 -8.69762529 12.68645872 -11 15 C-12.35166767 16.35227107 -13.70366908 17.70420858 -15.0559082 19.0559082 C-15.81631912 19.81631912 -16.57673004 20.57673004 -17.36018372 21.36018372 C-27.90678914 31.90678914 -38.45339457 42.45339457 -49 53 C-49.33 52.34 -49.66 51.68 -50 51 C-44.60812746 44.62135989 -38.83059154 38.69914981 -32.91015625 32.8125 C-31.95587007 31.86008388 -31.00180812 30.90744305 -30.04795837 29.95458984 C-27.5629203 27.47333075 -25.07489204 24.99509209 -22.58618164 22.51751709 C-20.03672504 19.97837515 -17.49017312 17.43632354 -14.94335938 14.89453125 C-9.96504369 9.92687118 -4.98355629 4.96240314 0 0 Z " fill="#535353" transform="translate(110,83)"/>
</svg>
