<?xml version="1.0" encoding="UTF-8"?>
<svg version="1.1" xmlns="http://www.w3.org/2000/svg" width="375" height="375">
<path d="M0 0 C1.27499863 -0.00953201 2.54999725 -0.01906403 3.8636322 -0.02888489 C5.23794584 -0.02862342 6.61225949 -0.0276862 7.98657227 -0.02612305 C9.41471988 -0.03001651 10.84286635 -0.03435251 12.27101135 -0.03910828 C15.25574508 -0.04654396 18.24036045 -0.04629842 21.22509766 -0.04101562 C25.03234406 -0.03522212 28.83910379 -0.05216158 32.6462698 -0.0753603 C35.59327481 -0.09015756 38.54016419 -0.09096128 41.48719978 -0.08785057 C42.8900963 -0.0883607 44.29299982 -0.09353997 45.69585991 -0.10366249 C55.95061349 -0.16859042 63.99475681 0.35848376 71.82641602 7.52856445 C77.08734559 13.49718252 78.49172983 20.15796643 78.48573303 27.90582275 C78.48701467 28.90325253 78.48701467 28.90325253 78.4883222 29.9208324 C78.48996828 32.14720024 78.48446991 34.37349262 78.47900391 36.59985352 C78.47872182 38.19648232 78.47888019 39.79311126 78.47944641 41.38973999 C78.47973355 45.72408698 78.47385026 50.05840636 78.46687245 54.39274693 C78.46062507 58.92245405 78.46003402 63.45216179 78.45884705 67.98187256 C78.45573782 76.55949274 78.44752993 85.13710019 78.43749756 93.71471477 C78.42632375 103.48003716 78.42082277 113.24536016 78.41580212 123.01068735 C78.40534699 143.09868474 78.38775544 163.18667067 78.36547852 183.2746582 C78.99473236 183.26577576 79.62398621 183.25689331 80.27230835 183.2477417 C86.8590989 183.15881227 93.44571713 183.09873562 100.03295898 183.05493164 C102.48680557 183.03489496 104.94060488 183.00765788 107.39428711 182.97290039 C110.93428255 182.92403322 114.4736432 182.901609 118.01391602 182.8840332 C119.64265152 182.85306549 119.64265152 182.85306549 121.30429077 182.82147217 C130.09325136 182.81891974 137.50527005 184.50406068 144.24047852 190.3996582 C150.21005319 197.04663142 152.10088114 204.58450668 151.74047852 213.3918457 C150.58013272 222.31200399 145.4702438 228.01053158 139.36547852 234.2746582 C138.51985352 235.1615332 137.67422852 236.0484082 136.80297852 236.9621582 C134.86791624 238.79798652 132.91064838 240.50565088 130.86547852 242.2121582 C127.59229077 244.97523877 125.05665539 247.94609733 122.36547852 251.2746582 C119.66741932 254.11472051 116.8703847 256.70806972 113.86547852 259.2121582 C110.59229077 261.97523877 108.05665539 264.94609733 105.36547852 268.2746582 C102.8293766 270.94081663 100.29081972 273.33502063 97.42797852 275.6496582 C94.51994911 278.02082064 92.19597284 280.70306501 89.79907227 283.5793457 C86.94764525 286.95133296 83.8586284 289.87594127 80.42797852 292.6496582 C77.51994911 295.02082064 75.19597284 297.70306501 72.79907227 300.5793457 C69.94764525 303.95133296 66.8586284 306.87594127 63.42797852 309.6496582 C60.5218887 312.01923913 58.19801703 314.6973403 55.80688477 317.57543945 C53.79371268 319.94869109 51.59403558 322.10474738 49.36547852 324.2746582 C48.64360352 325.0377832 47.92172852 325.8009082 47.17797852 326.5871582 C45.36547852 328.2746582 45.36547852 328.2746582 43.36547852 328.2746582 C43.15922852 328.8315332 42.95297852 329.3884082 42.74047852 329.9621582 C40.84653327 333.14742975 38.24871827 334.97983473 35.36547852 337.2746582 C34.53016602 338.1409082 34.53016602 338.1409082 33.67797852 339.0246582 C30.8598225 341.70861631 27.28911901 341.48666304 23.59594727 341.70043945 C18.27761662 340.68520646 14.17777405 336.33968789 10.45687866 332.64021301 C9.05222099 331.25051804 9.05222099 331.25051804 7.6191864 329.83274841 C6.5987954 328.81325302 5.57852032 327.79364161 4.55834961 326.77392578 C3.47076038 325.69396554 2.38277261 324.61440653 1.29441833 323.53521729 C-1.65045346 320.61222163 -4.58879026 317.68274307 -7.52528811 314.75133729 C-9.36259834 312.9176781 -11.20119825 311.08532207 -13.04023361 309.25339317 C-19.462794 302.85530121 -25.8796364 296.4515316 -32.29174805 290.04296875 C-38.2579877 284.08036459 -44.23723265 278.13102298 -50.22254813 272.18757325 C-55.37044517 267.07441963 -60.50862851 261.95163742 -65.63953149 256.82143134 C-68.69988607 253.76186803 -71.76404918 250.70637571 -74.83824539 247.6607151 C-77.73040279 244.7948083 -80.61024344 241.91706359 -83.48129082 239.03001404 C-84.53308449 237.97641159 -85.58911301 236.92701599 -86.64977837 235.8823452 C-93.39280775 229.23479315 -98.7536923 223.28502206 -100.16577148 213.6496582 C-100.08316667 204.72833865 -99.12739435 198.30489613 -93.19702148 191.4621582 C-92.35139648 190.7402832 -91.50577148 190.0184082 -90.63452148 189.2746582 C-89.83014648 188.5527832 -89.02577148 187.8309082 -88.19702148 187.0871582 C-81.74502922 182.52355392 -75.04845665 183.00987593 -67.45483398 183.0793457 C-66.28693329 183.0821756 -65.11903259 183.08500549 -63.91574097 183.08792114 C-60.19689557 183.09908847 -56.47829372 183.12418716 -52.75952148 183.1496582 C-50.2334833 183.15969244 -47.70744134 183.16881752 -45.18139648 183.17700195 C-38.99902215 183.19901656 -32.81678922 183.23246006 -26.63452148 183.2746582 C-26.63913045 182.43258851 -26.64373941 181.59051882 -26.64848804 180.72293186 C-26.75900047 160.21567655 -26.84169425 139.7084727 -26.89358234 119.20098209 C-26.91934324 109.28361873 -26.95445334 99.36645437 -27.01171875 89.44921875 C-27.06161845 80.80344187 -27.09382787 72.15780914 -27.10496396 63.51189226 C-27.11147161 58.93559859 -27.12672218 54.35971726 -27.16317177 49.78355598 C-27.19723517 45.47183968 -27.20755372 41.1607036 -27.20005989 36.84886551 C-27.20142984 35.27069503 -27.21130088 33.69250415 -27.23054886 32.11445045 C-27.34864712 21.92820295 -26.37653776 14.84420281 -19.64233398 6.93481445 C-19.02100586 6.40758789 -18.39967773 5.88036133 -17.75952148 5.3371582 C-17.14334961 4.79188477 -16.52717773 4.24661133 -15.89233398 3.68481445 C-10.98133387 0.61756352 -5.68520139 0.0234914 0 0 Z M0.36547852 27.2746582 C0.350896 32.41286133 0.33631348 37.55106445 0.32128906 42.8449707 C0.27097568 59.812393 0.20453655 76.77972375 0.1297636 93.74705505 C0.08481863 104.03537979 0.04540092 114.32367002 0.01904297 124.61206055 C-0.00394758 133.58054403 -0.0373575 142.54891817 -0.08322304 151.51731491 C-0.10714094 156.26499804 -0.12587914 161.01257296 -0.13213539 165.76031494 C-0.13819269 170.23205305 -0.15821596 174.70351436 -0.188797 179.17514992 C-0.19756686 180.81335336 -0.20130198 182.45159299 -0.19952965 184.08981895 C-0.18745944 200.39954769 -0.18745944 200.39954769 -3.63452148 206.2746582 C-7.69542631 209.1471762 -11.10370832 209.65699684 -16.00708008 209.70703125 C-17.24791351 209.72682541 -18.48874695 209.74661957 -19.7671814 209.76701355 C-21.10577238 209.77378168 -22.44436501 209.78022873 -23.78295898 209.78637695 C-25.16445498 209.80323822 -26.54593578 209.8213904 -27.92739868 209.84077454 C-31.54733528 209.88812417 -35.1672102 209.91803019 -38.78735352 209.94421387 C-42.48783544 209.97409581 -46.18810519 210.02059972 -49.88842773 210.06567383 C-57.13702002 210.15153554 -64.38562801 210.21895633 -71.63452148 210.2746582 C-66.90396293 215.96266862 -61.84061689 221.2048073 -56.59985352 226.42285156 C-55.71140244 227.31144867 -54.82295135 228.20004578 -53.90757751 229.11557007 C-51.49038859 231.53218498 -49.07101461 233.94657121 -46.65061045 236.35996318 C-44.11438024 238.8899083 -41.58101408 241.42271815 -39.04733276 243.95521545 C-34.25775859 248.74169143 -29.46564285 253.5256143 -24.67259109 258.30860764 C-19.21228541 263.75770506 -13.75484599 269.20966931 -8.29763627 274.66186702 C2.92023312 285.86930628 14.14166668 297.07316988 25.36547852 308.2746582 C31.04895742 303.54594334 36.29390214 298.48842477 41.51367188 293.25585938 C42.40226898 292.36901459 43.29086609 291.4821698 44.20639038 290.56845093 C46.62307231 288.15539583 49.0375089 285.74013867 51.45078349 283.32367873 C53.98103126 280.79088648 56.51373228 278.26054924 59.04603577 275.72981262 C63.29013883 271.48752317 67.53214118 267.24314174 71.77294922 262.99755859 C76.68074521 258.08430046 81.59216168 253.1746835 86.50543302 248.2669012 C90.72818457 244.04867876 94.94899553 239.828522 99.16817194 235.60672361 C101.68661514 233.08671922 104.20573444 230.5674007 106.72660637 228.04982567 C109.52827887 225.2515626 112.32587641 222.44924809 115.12304688 219.64648438 C116.38292671 218.38964088 116.38292671 218.38964088 117.66825867 217.10740662 C118.42383057 216.34901489 119.17940247 215.59062317 119.95787048 214.80924988 C120.61984405 214.14689929 121.28181761 213.4845487 121.96385098 212.80212688 C123.47816253 211.49737291 123.47816253 211.49737291 123.36547852 210.2746582 C122.60206146 210.26879196 121.83864441 210.26292572 121.05209351 210.25688171 C113.84283369 210.1988771 106.63391642 210.12675649 99.424963 210.03894329 C95.71912198 209.99429547 92.01338948 209.95502744 88.30737305 209.92822266 C84.72803119 209.90213332 81.14910815 209.86169217 77.5700264 209.81147194 C76.20740612 209.79484105 74.84471346 209.78330327 73.48200607 209.7770443 C71.567232 209.7673629 69.65259207 209.73757282 67.73803711 209.70703125 C66.64993744 209.69592819 65.56183777 209.68482513 64.44076538 209.67338562 C60.79322882 209.20046296 58.46241793 208.25712027 55.36547852 206.2746582 C52.26728411 202.21520733 51.98491905 199.10746322 51.9667511 194.06767273 C51.96010427 193.35286249 51.95345744 192.63805226 51.9466092 191.90158111 C51.92799374 189.51236664 51.93058343 187.1236536 51.93310547 184.734375 C51.9240874 183.01936639 51.91376007 181.30436423 51.90222168 179.58937073 C51.87463079 174.93690563 51.86536432 170.28456276 51.85936761 165.63202643 C51.8499894 160.7686171 51.82378645 155.90529926 51.79936218 151.04194641 C51.7556783 141.83397956 51.72714292 132.62603044 51.7040388 123.41799146 C51.67699727 112.93434644 51.6330851 102.45079338 51.58775008 91.96721399 C51.49487668 70.40306519 51.42543539 48.83892538 51.36547852 27.2746582 C34.53547852 27.2746582 17.70547852 27.2746582 0.36547852 27.2746582 Z " fill="#090909" transform="translate(156.634521484375,16.725341796875)"/>
<path d="M0 0 C0.66 0.33 1.32 0.66 2 1 C-0.97 3.97 -3.94 6.94 -7 10 C-7.33 9.34 -7.66 8.68 -8 8 C-5.33333333 5.33333333 -2.66666667 2.66666667 0 0 Z " fill="#646464" transform="translate(69,203)"/>
</svg>
