<?xml version="1.0" encoding="UTF-8"?>
<svg version="1.1" xmlns="http://www.w3.org/2000/svg" width="375" height="375">
<path d="M0 0 C1.27845291 -0.00960754 2.55690582 -0.01921509 3.87409973 -0.02911377 C5.26722026 -0.03396235 6.66034288 -0.03824103 8.0534668 -0.04199219 C9.48829651 -0.04774888 10.92312622 -0.05350654 12.35795593 -0.05926514 C15.36478024 -0.06975843 18.37157794 -0.07561191 21.37841797 -0.07910156 C25.21832487 -0.08458048 29.05787615 -0.10860232 32.8976717 -0.13707352 C35.86178085 -0.15576152 38.82580542 -0.16090877 41.78996849 -0.16243744 C43.20486582 -0.165451 44.61976213 -0.17343547 46.03460121 -0.18662262 C57.33033878 -0.28438481 65.35069475 1.05732328 73.69018555 9.16113281 C77.69139576 15.12845494 78.81594789 20.67618692 78.81044006 27.79229736 C78.8117217 28.78972714 78.8117217 28.78972714 78.81302923 29.807307 C78.81467531 32.03367485 78.80917694 34.25996723 78.80371094 36.48632812 C78.80342885 38.08295693 78.80358722 39.67958587 78.80415344 41.2762146 C78.80444058 45.61056159 78.79855729 49.94488096 78.79157948 54.27922153 C78.7853321 58.80892866 78.78474105 63.3386364 78.78355408 67.86834717 C78.78044485 76.44596735 78.77223696 85.0235748 78.76220459 93.60118937 C78.75103078 103.36651177 78.7455298 113.13183477 78.74050915 122.89716196 C78.73005402 142.98515935 78.71246247 163.07314528 78.69018555 183.16113281 C79.32166 183.15225037 79.95313446 183.14336792 80.60374451 183.13421631 C87.206603 183.04536983 93.80929025 182.98524418 100.41259766 182.94140625 C102.87327986 182.92135469 105.3339148 182.89410634 107.79443359 182.859375 C111.34183453 182.81057402 114.88860261 182.78809854 118.4362793 182.77050781 C119.52726425 182.74986267 120.61824921 182.72921753 121.74229431 182.70794678 C131.07250041 182.70523736 138.23433762 185.1072796 145.1862793 191.44628906 C150.48776865 197.49136393 152.0105423 204.48762095 151.8972168 212.31738281 C150.96552628 225.11494306 139.54537653 233.45604333 131.04492188 241.95166016 C129.98615607 243.01342412 128.92759347 244.07539075 127.86921692 245.13754272 C125.016496 247.99903314 122.16060053 250.85733401 119.30381227 253.71476316 C117.51736207 255.50192698 115.73162695 257.28980212 113.9461422 259.07793045 C107.71303367 265.32026344 101.47737491 271.56003557 95.23925781 277.79736328 C89.42868126 283.60733727 83.62372615 289.42288655 77.82133275 295.241032 C72.83025534 300.24517473 67.83534057 305.24546497 62.83740634 310.24275935 C59.85604166 313.22386909 56.87625019 316.20651081 53.90030861 319.19303513 C51.10658463 321.99642502 48.30812043 324.79499384 45.5059185 327.5899086 C44.47864281 328.61613714 43.45307417 329.64407774 42.42934418 330.67384338 C41.0322569 332.07863346 39.62839485 333.47667623 38.22419739 334.87435913 C37.44054715 335.65855413 36.65689692 336.44274914 35.8494997 337.25070763 C32.64867549 340.08259533 30.58063629 341.07868367 26.31518555 341.47363281 C19.87431851 340.91838565 15.97800289 337.82454482 11.51098633 333.35424805 C10.79278465 332.64152237 10.79278465 332.64152237 10.06007385 331.91439819 C8.49441715 330.35678605 6.93979262 328.78867027 5.38549805 327.21972656 C4.29599265 326.12970213 3.20596781 325.04019668 2.115448 323.95118713 C-0.16029745 321.67535226 -2.43081077 319.39446348 -4.69750977 317.10961914 C-7.60782332 314.17652487 -10.52918306 311.25473473 -13.4542675 308.33637905 C-15.70222085 306.09175934 -17.9451724 303.84219706 -20.18652725 301.59099007 C-21.26252638 300.51113526 -22.33988513 299.43263349 -23.4186058 298.35549736 C-24.91973012 296.85474224 -26.41421403 295.34768366 -27.90698242 293.83862305 C-28.75936493 292.98163315 -29.61174744 292.12464325 -30.48995972 291.24168396 C-32.30981445 289.16113281 -32.30981445 289.16113281 -32.30981445 287.16113281 C-32.90310547 286.89236328 -33.49639648 286.62359375 -34.10766602 286.34667969 C-36.31521479 285.15822549 -37.77524327 283.95370892 -39.54418945 282.19238281 C-40.40463867 281.33580078 -40.40463867 281.33580078 -41.2824707 280.46191406 C-41.86899414 279.86765625 -42.45551758 279.27339844 -43.05981445 278.66113281 C-43.66180664 278.066875 -44.26379883 277.47261719 -44.8840332 276.86035156 C-45.73674805 276.00376953 -45.73674805 276.00376953 -46.60668945 275.12988281 C-47.12585938 274.60845703 -47.6450293 274.08703125 -48.17993164 273.54980469 C-49.30981445 272.16113281 -49.30981445 272.16113281 -49.30981445 270.16113281 C-50.17606445 269.78988281 -50.17606445 269.78988281 -51.05981445 269.41113281 C-53.63921425 267.97813293 -55.37103037 266.37688605 -57.30981445 264.16113281 C-57.30981445 263.50113281 -57.30981445 262.84113281 -57.30981445 262.16113281 C-57.86668945 261.93425781 -58.42356445 261.70738281 -58.99731445 261.47363281 C-61.97141033 259.78563245 -64.0299031 257.69436765 -66.30981445 255.16113281 C-66.30981445 254.50113281 -66.30981445 253.84113281 -66.30981445 253.16113281 C-67.17606445 252.78988281 -67.17606445 252.78988281 -68.05981445 252.41113281 C-70.63921425 250.97813293 -72.37103037 249.37688605 -74.30981445 247.16113281 C-74.30981445 246.50113281 -74.30981445 245.84113281 -74.30981445 245.16113281 C-74.86668945 244.95488281 -75.42356445 244.74863281 -75.99731445 244.53613281 C-78.55022549 243.01818571 -79.98987486 241.20079712 -81.8059082 238.88378906 C-84.17612534 236.16881307 -86.95502584 233.95877818 -89.7355957 231.67675781 C-90.25508789 231.17660156 -90.77458008 230.67644531 -91.30981445 230.16113281 C-91.30981445 229.50113281 -91.30981445 228.84113281 -91.30981445 228.16113281 C-91.96981445 228.16113281 -92.62981445 228.16113281 -93.30981445 228.16113281 C-99.240248 220.37743878 -100.37936049 212.73075524 -99.30981445 203.16113281 C-97.14486819 195.89094119 -92.74377224 190.18369017 -86.30981445 186.16113281 C-79.47474608 182.98572015 -73.6255467 182.76261692 -66.15356445 182.86816406 C-65.0106897 182.87240891 -63.86781494 182.87665375 -62.69030762 182.88102722 C-59.06323036 182.89773307 -55.43672195 182.93537125 -51.80981445 182.97363281 C-49.34107251 182.98869007 -46.87232181 183.00237665 -44.40356445 183.01464844 C-38.37212249 183.0476101 -32.34100913 183.09772878 -26.30981445 183.16113281 C-26.31442342 182.32513865 -26.31903238 181.48914448 -26.32378101 180.62781715 C-26.43432642 160.26207995 -26.51700323 139.89639465 -26.56887531 119.5304203 C-26.59462871 109.68146599 -26.62972437 99.83271226 -26.68701172 89.98388672 C-26.7369345 81.39706388 -26.76912628 72.81038635 -26.78025693 64.22342241 C-26.78676069 59.67895346 -26.80198628 55.13490013 -26.83846474 50.59056473 C-26.87256471 46.30757146 -26.8828394 42.02516249 -26.87535286 37.74204636 C-26.87672119 36.17558358 -26.88657029 34.60909996 -26.90584183 33.04275513 C-27.01734115 23.50748336 -26.62684714 14.91814865 -19.831563 7.56055641 C-13.52540112 2.02031346 -8.23509744 0.04999392 0 0 Z " fill="#060404" transform="translate(156.309814453125,16.8388671875)"/>
<path d="M0 0 C17.16 0 34.32 0 52 0 C52.00410889 5.19878906 52.00821777 10.39757813 52.01245117 15.75390625 C52.02964005 32.92091776 52.07387543 50.0877806 52.13209057 67.25469971 C52.16672865 77.66412698 52.19209455 88.07342198 52.19555664 98.48291016 C52.19859817 107.55691258 52.21911413 116.63067937 52.26052457 125.7045908 C52.28183904 130.50824455 52.29446313 135.31156345 52.28615379 140.11526489 C52.27860386 144.63967358 52.29447459 149.16340431 52.32806015 153.68768883 C52.33628208 155.34524221 52.33605671 157.00286315 52.32659721 158.66040993 C52.02276247 169.8100623 52.02276247 169.8100623 56.60196114 179.67742348 C60.33154157 183.20569128 64.23331609 183.25755672 69.16723633 183.31884766 C70.99856865 183.34865219 70.99856865 183.34865219 72.86689758 183.37905884 C74.17539169 183.39061005 75.4838858 183.40216125 76.83203125 183.4140625 C78.19253194 183.43278547 79.55302117 183.45235973 80.91349792 183.4727478 C84.48246479 183.52395602 88.05146926 183.56364187 91.62060547 183.60089111 C95.26734635 183.64100201 98.91393234 183.69206192 102.56054688 183.7421875 C109.70691768 183.83881261 116.85338575 183.92326001 124 184 C122.54721611 187.3367038 120.72208531 189.52520252 118.15292358 192.08758545 C117.35082962 192.89242874 116.54873566 193.69727203 115.72233582 194.52650452 C114.4006414 195.8374131 114.4006414 195.8374131 113.05224609 197.17480469 C112.12536484 198.101978 111.19848358 199.02915131 110.24351501 199.98442078 C107.70478483 202.52372458 105.15993719 205.05681635 102.61394835 207.58883953 C99.95313773 210.23714437 97.29799293 212.89111721 94.64224243 215.54449463 C89.61369853 220.56682332 84.58007829 225.58403216 79.54461539 230.59942269 C73.81159255 236.31008784 68.0842503 242.02643567 62.35737872 247.74326849 C50.57789614 259.50184813 38.79129851 271.25326895 27 283 C21.28238648 278.24477037 16.01032375 273.15244471 10.76000977 267.8894043 C9.86165909 266.99280594 8.96330841 266.09620758 8.03773499 265.17243958 C5.59374912 262.73297938 3.15289659 260.29040717 0.71276593 257.84709144 C-1.84550918 255.2862721 -4.40623726 252.72790747 -6.96656799 250.16914368 C-11.25774954 245.87977584 -15.5468302 241.58831577 -19.8347168 237.2956543 C-24.79704443 232.32786473 -29.76299235 227.36371592 -34.73079532 222.40140218 C-39.0002556 218.13647101 -43.26777533 213.86960547 -47.53366047 209.60109836 C-50.08004931 207.0531483 -52.62711437 204.50588412 -55.17593193 201.96036339 C-58.00873954 199.1309652 -60.83746609 196.2975217 -63.66577148 193.46362305 C-64.51504211 192.61637665 -65.36431274 191.76913025 -66.23931885 190.89620972 C-67.0033049 190.12940384 -67.76729095 189.36259796 -68.5544281 188.57255554 C-69.22377601 187.90283061 -69.89312391 187.23310568 -70.58275509 186.54308605 C-72 185 -72 185 -72 184 C-71.25355225 183.99635437 -70.50710449 183.99270874 -69.73803711 183.98895264 C-62.67650924 183.95096289 -55.61544293 183.89398678 -48.55426025 183.81609726 C-44.9246652 183.77671898 -41.29530923 183.74448381 -37.66552734 183.72900391 C-34.15740773 183.71377283 -30.64994583 183.67921567 -27.14212036 183.63169098 C-25.16377797 183.60980401 -23.18524967 183.60753182 -21.20678711 183.60565186 C-14.09170484 183.49071447 -8.91072769 183.14641108 -3 179 C-0.81087165 174.95189531 -0.74120462 171.34180126 -0.7215271 166.79301453 C-0.7157347 166.07820429 -0.7099423 165.36339406 -0.70397437 164.62692291 C-0.68700348 162.23780815 -0.68410041 159.84888691 -0.68115234 157.4597168 C-0.67185215 155.74471057 -0.66168334 154.02970887 -0.65071106 152.31471252 C-0.62340727 147.66227402 -0.6082605 143.0098658 -0.59528303 138.35736823 C-0.57965419 133.49397288 -0.55286317 128.63063939 -0.5272522 123.76728821 C-0.48046008 114.55932649 -0.44371804 105.35135313 -0.41057932 96.14333326 C-0.37236102 85.6597026 -0.32295008 75.17613408 -0.27259517 64.69255579 C-0.16926883 43.12841067 -0.08148824 21.56423945 0 0 Z " fill="#FE904C" transform="translate(156,43)"/>
<path d="M0 0 C17.16 0 34.32 0 52 0 C52 57.09 52 114.18 52 173 C51.67 173 51.34 173 51 173 C50.67 116.9 50.34 60.8 50 3 C34.16 2.67 18.32 2.34 2 2 C2.01047363 7.19991699 2.02094727 12.39983398 2.03173828 17.75732422 C2.06480879 34.89634834 2.08704361 52.03537368 2.10362434 69.17442131 C2.11394857 79.57056171 2.12803074 89.96667193 2.15087891 100.36279297 C2.17077776 109.42124708 2.18370809 118.47967936 2.18817699 127.53815472 C2.19079033 132.33707769 2.19695647 137.13593816 2.21146011 141.93484116 C2.22498872 146.44749628 2.22923226 150.96006288 2.22621536 155.47273636 C2.22676765 157.13283519 2.23077312 158.79293684 2.23841095 160.45301819 C2.24829851 162.71202446 2.24599181 164.97069241 2.24050903 167.22970581 C2.24235262 168.49624937 2.24419621 169.76279293 2.24609566 171.0677166 C2 174 2 174 0 176 C0 117.92 0 59.84 0 0 Z " fill="#DC8C5A" transform="translate(156,43)"/>
<path d="M0 0 C1.40897804 0.02997826 1.40897804 0.02997826 2.84642029 0.06056213 C3.90744461 0.08065842 4.96846893 0.1007547 6.06164551 0.12145996 C7.21579453 0.14849503 8.36994354 0.17553009 9.55906677 0.2033844 C10.73404221 0.22699539 11.90901764 0.25060638 13.11959839 0.27493286 C16.88990186 0.35179542 20.66001149 0.43572215 24.43016052 0.51979065 C26.97897901 0.57298873 29.52780709 0.62572925 32.0766449 0.67799377 C38.34043795 0.80744097 44.60408586 0.94269552 50.86766052 1.08229065 C50.86766052 1.41229065 50.86766052 1.74229065 50.86766052 2.08229065 C33.70766052 2.08229065 16.54766052 2.08229065 -1.13233948 2.08229065 C-1.11662903 7.32184631 -1.10091858 12.56140198 -1.08473206 17.95973206 C-1.0350743 35.25039162 -1.001753 52.54105395 -0.97690296 69.83176613 C-0.96143251 80.31749226 -0.94033953 90.80315084 -0.90602112 101.28883362 C-0.87612428 110.42789803 -0.85676577 119.56691353 -0.85007399 128.70602548 C-0.84616223 133.54535183 -0.83696525 138.38453823 -0.81514931 143.22381973 C-0.79477971 147.77919639 -0.78850665 152.33437552 -0.79301643 156.8897934 C-0.79219145 158.56111856 -0.78622859 160.23245035 -0.77472305 161.90373611 C-0.75977127 164.18774954 -0.76339528 166.47101961 -0.77157593 168.75505066 C-0.76881055 170.03265574 -0.76604517 171.31026081 -0.76319599 172.62658119 C-1.16850857 176.42088497 -2.14104188 178.845733 -4.13233948 182.08229065 C-4.79233948 182.41229065 -5.45233948 182.74229065 -6.13233948 183.08229065 C-6.13233948 182.09229065 -6.13233948 181.10229065 -6.13233948 180.08229065 C-5.47233948 180.08229065 -4.81233948 180.08229065 -4.13233948 180.08229065 C-3.14160979 175.96185899 -3.01145629 172.11401731 -3.01881409 167.8820343 C-3.01866523 167.16792963 -3.01851637 166.45382496 -3.018363 165.71808076 C-3.01905609 163.33131573 -3.02689184 160.94462819 -3.03468323 158.55787659 C-3.0366028 156.84449812 -3.03806641 155.13111909 -3.03910828 153.41773987 C-3.04226717 149.73185434 -3.04853239 146.04599176 -3.05717468 142.36011505 C-3.0706902 136.53738577 -3.07658939 130.71466413 -3.08131409 124.891922 C-3.09241323 112.53870134 -3.11196352 100.18549896 -3.13233948 87.83229065 C-3.15434035 74.48311669 -3.17491181 61.13395008 -3.18575764 47.78476167 C-3.19075491 41.99037459 -3.20063592 36.19602211 -3.21418762 30.401649 C-3.22161754 26.80702746 -3.22495682 23.21241077 -3.22715378 19.61778259 C-3.22903453 17.944361 -3.23265262 16.27094038 -3.2380867 14.59752655 C-3.24524294 12.3231991 -3.24634315 10.04894912 -3.24586487 7.77461243 C-3.24808548 6.49889248 -3.25030609 5.22317253 -3.25259399 3.9087944 C-3.09136878 0.11930124 -3.09136878 0.11930124 0 0 Z " fill="#180000" transform="translate(157.13233947753906,40.91770935058594)"/>
<path d="M0 0 C0.99 0.495 0.99 0.495 2 1 C1.34 1.66 0.68 2.32 0 3 C0.99 3.66 1.98 4.32 3 5 C3 5.99 3 6.98 3 8 C1.68 8 0.36 8 -1 8 C-1.495 7.01 -1.495 7.01 -2 6 C-2.70158737 6.16265854 -3.40317474 6.32531708 -4.12602234 6.49290466 C-7.1443518 7.02546997 -9.91974118 7.12008621 -12.98364258 7.11352539 C-14.16448929 7.11344986 -15.345336 7.11337433 -16.56196594 7.11329651 C-17.82671249 7.10813522 -19.09145905 7.10297394 -20.39453125 7.09765625 C-21.69702316 7.0962413 -22.99951508 7.09482635 -24.34147644 7.09336853 C-27.79216454 7.08956355 -31.24281008 7.07975064 -34.69348145 7.06866455 C-38.21947657 7.05840689 -41.74547861 7.0538616 -45.27148438 7.04882812 C-52.18100699 7.03812644 -59.09050145 7.02107443 -66 7 C-66.33 7.99 -66.66 8.98 -67 10 C-67.99 8.68 -68.98 7.36 -70 6 C-69.25355225 5.99635437 -68.50710449 5.99270874 -67.73803711 5.98895264 C-60.67650924 5.95096289 -53.61544293 5.89398678 -46.55426025 5.81609726 C-42.9246652 5.77671898 -39.29530923 5.74448381 -35.66552734 5.72900391 C-32.15740773 5.71377283 -28.64994583 5.67921567 -25.14212036 5.63169098 C-23.16377797 5.60980401 -21.18524967 5.60753182 -19.20678711 5.60565186 C-12.14577623 5.49158794 -5.33226014 5.33226014 0 0 Z " fill="#EF9361" transform="translate(154,221)"/>
<path d="M0 0 C1.02867187 0.64743164 2.05734375 1.29486328 3.1171875 1.96191406 C9.19850418 4.98292733 15.46440405 4.603046 22.125 4.609375 C23.48122103 4.62437926 24.83742395 4.64111108 26.19360352 4.65948486 C29.73794458 4.70291984 33.28203928 4.72310375 36.82659912 4.73822021 C40.45355657 4.75787824 44.08025127 4.79983796 47.70703125 4.83984375 C54.8045869 4.91488642 61.90212281 4.96533417 69 5 C67.47427344 8.32635882 66.06655496 9.95563002 63 12 C63 10.35 63 8.7 63 7 C62.26972595 6.99635437 61.5394519 6.99270874 60.78704834 6.98895264 C53.90089183 6.95106733 47.01512443 6.89420864 40.12931442 6.81609726 C36.58928335 6.77660745 33.04950156 6.74442683 29.50927734 6.72900391 C25.43807057 6.71094629 21.36779546 6.66100275 17.296875 6.609375 C15.39201324 6.60753204 15.39201324 6.60753204 13.44866943 6.60565186 C12.26774719 6.58593323 11.08682495 6.5662146 9.87011719 6.54589844 C8.83087097 6.53701599 7.79162476 6.52813354 6.72088623 6.51898193 C3.32314528 5.87089671 2.10409192 4.6938699 0 2 C0 1.34 0 0.68 0 0 Z " fill="#F49461" transform="translate(211,222)"/>
<path d="M0 0 C0.66 0.33 1.32 0.66 2 1 C1.34 1.66 0.68 2.32 0 3 C0.99 3.66 1.98 4.32 3 5 C3 5.99 3 6.98 3 8 C1.68 8 0.36 8 -1 8 C-1.33 7.34 -1.66 6.68 -2 6 C-4.31 6.33 -6.62 6.66 -9 7 C-9 6.34 -9 5.68 -9 5 C-8.43410156 4.72285156 -7.86820313 4.44570312 -7.28515625 4.16015625 C-6.55167969 3.79792969 -5.81820312 3.43570313 -5.0625 3.0625 C-3.96615234 2.52302734 -3.96615234 2.52302734 -2.84765625 1.97265625 C-1.03750973 1.13628173 -1.03750973 1.13628173 0 0 Z " fill="#EB8E55" transform="translate(154,221)"/>
<path d="M0 0 C0.598125 0.309375 1.19625 0.61875 1.8125 0.9375 C4.08956772 2.10209704 4.08956772 2.10209704 7 3 C7.99 4.485 7.99 4.485 9 6 C10.65 5.67 12.3 5.34 14 5 C12.35 6.65 10.7 8.3 9 10 C7.49702124 8.52386015 5.99768715 7.04400843 4.5 5.5625 C3.6646875 4.73878906 2.829375 3.91507812 1.96875 3.06640625 C0 1 0 1 0 0 Z " fill="#E38F5B" transform="translate(173,316)"/>
<path d="M0 0 C0.99 0 1.98 0 3 0 C1.59155282 3.21524305 -0.10344786 5.32183868 -2.625 7.75 C-3.57246094 8.67039063 -3.57246094 8.67039063 -4.5390625 9.609375 C-5.02117187 10.06828125 -5.50328125 10.5271875 -6 11 C-6.66 9.68 -7.32 8.36 -8 7 C-6.824375 6.87625 -6.824375 6.87625 -5.625 6.75 C-2.87716848 6.27676847 -2.87716848 6.27676847 -1.75 4.0625 C-1.5025 3.381875 -1.255 2.70125 -1 2 C-0.67 1.34 -0.34 0.68 0 0 Z " fill="#D88753" transform="translate(268,236)"/>
<path d="M0 0 C2.97 0 5.94 0 9 0 C7.11656068 3.76687864 6.30867531 4.79421646 3 7 C3.061875 6.21625 3.12375 5.4325 3.1875 4.625 C3.125625 3.75875 3.06375 2.8925 3 2 C2.01 1.34 1.02 0.68 0 0 Z " fill="#DF8B56" transform="translate(271,227)"/>
<path d="M0 0 C0.33 0.66 0.66 1.32 1 2 C-1.31 4.64 -3.62 7.28 -6 10 C-6.99 9.67 -7.98 9.34 -9 9 C-6.03 6.03 -3.06 3.06 0 0 Z " fill="#130200" transform="translate(225,283)"/>
<path d="M0 0 C1.65 0 3.3 0 5 0 C6.25664978 2.90600261 7 4.79604584 7 8 C5.83035398 6.8572081 4.66435444 5.71068285 3.5 4.5625 C2.8503125 3.92441406 2.200625 3.28632813 1.53125 2.62890625 C0 1 0 1 0 0 Z " fill="#E18B56" transform="translate(105,248)"/>
<path d="M0 0 C0.66 0 1.32 0 2 0 C1.67 1.65 1.34 3.3 1 5 C-1.4375 4.625 -1.4375 4.625 -4 4 C-4.33 3.34 -4.66 2.68 -5 2 C-3.68 2.33 -2.36 2.66 -1 3 C-0.67 2.01 -0.34 1.02 0 0 Z " fill="#F29057" transform="translate(93,229)"/>
<path d="M0 0 C3.3 1.65 6.6 3.3 10 5 C10 5.33 10 5.66 10 6 C6.29706315 6.33663062 4.60465619 6.47736015 1.625 4.125 C0 2 0 2 0 0 Z " fill="#E8925E" transform="translate(211,222)"/>
<path d="M0 0 C0.33 0.99 0.66 1.98 1 3 C-0.39789678 5.79579355 -2.2628997 6.59807058 -5 8 C-5.66 7.67 -6.32 7.34 -7 7 C-4.69 4.69 -2.38 2.38 0 0 Z " fill="#180200" transform="translate(198,310)"/>
<path d="M0 0 C0.99 0.33 1.98 0.66 3 1 C1.63016497 4.16115776 1.0109362 4.9927092 -2 7 C-2 5.35 -2 3.7 -2 2 C-1.34 2 -0.68 2 0 2 C0 1.34 0 0.68 0 0 Z " fill="#E38E57" transform="translate(235,268)"/>
</svg>
